<svg id="energisa" xmlns="http://www.w3.org/2000/svg" width="148.825" height="48.471" viewBox="0 0 148.825 48.471">
  <g id="Grupo_1376" data-name="Grupo 1376" transform="translate(0)">
    <path id="Caminho_2134" data-name="Caminho 2134" d="M275.209,1068.271c-10.928,0-20.151,0-20.151,0s23.1,7.605,13.051,23.047c0,0,17.089-11.965,7.1-23.051" transform="translate(-252.338 -1068.271)" fill="#fff"/>
    <path id="Caminho_2135" data-name="Caminho 2135" d="M268.645,1084.959c-11.384,4.7-21.077,17.015.517,34.436h18.359s-37.007-21.861-18.877-34.436" transform="translate(-252.536 -1070.923)" fill="#fff"/>
    <path id="Caminho_2136" data-name="Caminho 2136" d="M252.906,1104.425a22.7,22.7,0,0,0,1.824,18.064h12.625c-6.3-2.843-14.71-10.767-14.449-18.064" transform="translate(-251.824 -1074.018)" fill="#fff"/>
    <path id="Caminho_2137" data-name="Caminho 2137" d="M296.674,1092.519c-4.979,0-7.8,3.846-7.8,9,0,6.01,2.918,8.756,8.242,8.756a15.629,15.629,0,0,0,5.908-1.1l-.343-2.919a11.818,11.818,0,0,1-4.981,1.1c-3.4,0-5.148-1.785-5.049-5.736h10.887a17.019,17.019,0,0,0,.1-1.716c0-4.053-2.094-7.385-6.972-7.385m-3.95,6.529c.309-2.3,1.752-3.814,3.813-3.814,2.165,0,3.5,1.476,3.433,3.814Z" transform="translate(-257.714 -1072.125)" fill="#fff"/>
    <path id="Caminho_2138" data-name="Caminho 2138" d="M319.6,1092.519a6.239,6.239,0,0,0-5.942,3.71l-.034-.036a22.585,22.585,0,0,0,.238-3.331h-3.5v17.073h3.674v-8.248c0-3.4,1.888-6.113,4.466-6.113,1.955,0,2.543,1.239,2.543,3.367v10.993h3.637v-11.953c0-3.024-1.2-5.463-5.08-5.463" transform="translate(-261.128 -1072.125)" fill="#fff"/>
    <path id="Caminho_2139" data-name="Caminho 2139" d="M338.9,1092.519c-4.981,0-7.8,3.846-7.8,9,0,6.01,2.922,8.756,8.246,8.756a15.627,15.627,0,0,0,5.907-1.1l-.344-2.919a11.823,11.823,0,0,1-4.98,1.1c-3.4,0-5.151-1.785-5.05-5.736h10.888a16.966,16.966,0,0,0,.1-1.716c0-4.053-2.093-7.385-6.97-7.385m-3.951,6.529c.31-2.3,1.753-3.814,3.813-3.814,2.163,0,3.5,1.476,3.434,3.814Z" transform="translate(-264.425 -1072.125)" fill="#fff"/>
    <path id="Caminho_2140" data-name="Caminho 2140" d="M355.811,1096.637h-.072a22.867,22.867,0,0,0,.343-3.781h-3.5v17.073h3.674v-6.939c0-5.119,1.652-7.489,5.049-6.87l.172-3.607c-3.193-.31-4.911,1.82-5.663,4.124" transform="translate(-267.839 -1072.12)" fill="#fff"/>
    <path id="Caminho_2141" data-name="Caminho 2141" d="M376.314,1106.842a9.916,9.916,0,0,1-2.514.329c-3.208,0-5.423-2.015-5.423-5.69,0-3.9,2.579-5.919,5.788-5.919a12.814,12.814,0,0,1,4.729.927l.628-3.107a18.755,18.755,0,0,0-5.392-.8c-5.985,0-9.557,4.036-9.557,9.194,0,5.625,3.738,8.535,8.9,8.535a17.522,17.522,0,0,0,6.415-1.159v-8.1h-3.571Z" transform="translate(-269.745 -1072.135)" fill="#fff"/>
    <rect id="Retângulo_1956" data-name="Retângulo 1956" width="3.674" height="17.073" transform="translate(113.636 20.737)" fill="#fff"/>
    <path id="Caminho_2142" data-name="Caminho 2142" d="M426.1,1109.965c-.068-1.442-.1-3.194-.1-4.672V1098.3c0-3.5-1.443-5.769-6.663-5.769a17.061,17.061,0,0,0-6.012,1.132l.343,3.127a10.451,10.451,0,0,1,5.086-1.375c2.672,0,3.565,1.438,3.568,3.559-3.547,0-7.018.868-8.819,2.7a5.3,5.3,0,0,0-1.135,1.691,5,5,0,0,0,.483,4.854,4.3,4.3,0,0,0,4.184,2.089,6.054,6.054,0,0,0,5.666-3.539l.036.036a22.643,22.643,0,0,0-.172,3.158Zm-3.777-8.172c0,2.439-1.681,5.631-4.19,5.631a3.109,3.109,0,0,1-1.466-.291,2.821,2.821,0,0,1-.075-4.407,5.166,5.166,0,0,1,1.92-.857,15.206,15.206,0,0,1,3.811-.42Z" transform="translate(-277.275 -1072.128)" fill="#fff"/>
    <path id="Caminho_2143" data-name="Caminho 2143" d="M399.2,1097.254c.005-1.292,1.75-1.875,3.8-1.88a9.28,9.28,0,0,1,3.362.6l.165-2.817a9.7,9.7,0,0,0-3.234-.5c-4.7,0-7.916,2.018-7.926,4.933-.019,5.835,8.345,4.531,8.333,7.918-.005,1.392-1.252,1.629-3.271,1.629a13.58,13.58,0,0,1-4.6-1.051l-.113,3.257a14.763,14.763,0,0,0,4.494.845c4.627,0,7.374-1.869,7.386-5.02.02-5.6-8.413-4.666-8.4-7.921" transform="translate(-274.641 -1072.148)" fill="#fff"/>
  </g>
  <text id="LIGADA_NA_SUA_ENERGIA" data-name="LIGADA NA SUA ENERGIA" transform="translate(59.458 45.783)" fill="#fff" font-size="5" font-family="SegoeUI, Segoe UI" letter-spacing="0.1em"><tspan x="0" y="0">LIGADA NA SUA ENERGIA</tspan></text>
</svg>
