<svg xmlns="http://www.w3.org/2000/svg" width="41.509" height="40.001" viewBox="0 0 41.509 40.001">
  <g id="Facebook" transform="translate(-490.574 -901.404)">
    <g id="Grupo_14" data-name="Grupo 14" transform="translate(490.574 901.404)">
      <path id="Icon_metro-facebook" data-name="Icon metro-facebook" d="M37.162,1.928H9.488A6.8,6.8,0,0,0,2.571,8.6V35.262a6.8,6.8,0,0,0,6.917,6.668H23.325v-17.5H18.137v-5h5.189v-3.75a6.371,6.371,0,0,1,6.486-6.25H36.3v5H29.811a1.274,1.274,0,0,0-1.3,1.25v3.75h7.134l-1.3,5H28.514v17.5h8.648a6.8,6.8,0,0,0,6.917-6.668V8.6a6.8,6.8,0,0,0-6.917-6.668Z" transform="translate(-2.571 -1.928)" fill="#fff"/>
    </g>
  </g>
</svg>
