<svg xmlns="http://www.w3.org/2000/svg" width="1375.012" height="970.601" viewBox="0 0 1375.012 970.601">
  <g id="Grupo_1461" data-name="Grupo 1461" transform="translate(104.43 -142.001)" opacity="0.24">
    <g id="Grupo_1379" data-name="Grupo 1379" transform="translate(-101.173 186.127)">
      <path id="Caminho_2145" data-name="Caminho 2145" d="M1064.7,915.352,926.719,868.516,899.087,633.9,752.454,428.62l-63.147,41.733-49.633-15.782L568.191,137.623V35.8L503.38,1.5H665.4s62.9,66.72,81.973,68.629S907.479,148.264,907.479,155.9V331.319s34.305,72.428,53.376,83.863,91.48,85.772,91.48,85.772l13.609,32.415Z" transform="translate(304.311 -1.5)" fill="#f8f8f8" stroke="#e2e2e2" stroke-width="3"/>
      <path id="Caminho_2146" data-name="Caminho 2146" d="M900.811,671.24l-56.457-34.985S812.9,412.791,811.863,400s-64.017-114.8-84.316-118.187c-8.448-1.417-92.5,80.083-92.5,80.083L580.915,519.751,564.32,676.967Z" transform="translate(358.552 247.98)" fill="#f8f8f8" stroke="#e2e2e2" stroke-width="3"/>
      <path id="Caminho_2147" data-name="Caminho 2147" d="M769.029,331.769s-10.263-25.667-17.956-23.607-46.685,23.607-46.685,23.607l-79.062-23.607L596.068,192.64S487.71,230.12,491.3,236.792s49.785,158.124,49.785,158.124-46.7,99.078-38.5,101.119S620.147,539.2,620.147,539.2l54.945-122.7Z" transform="translate(293.482 168.629)" fill="#f8f8f8" stroke="#e2e2e2" stroke-width="3"/>
      <path id="Caminho_2148" data-name="Caminho 2148" d="M532.038,362.94l118.678,45.116,6.766,47.365-30.392,148.3-181.75-5.67Z" transform="translate(252.651 320.21)" fill="#f8f8f8" stroke="#e2e2e2" stroke-width="3"/>
      <path id="Caminho_2149" data-name="Caminho 2149" d="M490.666,717.328l137.617-341.2L589.914,223.3,377.866,328.2l42.867,85.715-75.6,279.731Z" transform="translate(163.456 195.919)" fill="#f8f8f8" stroke="#e2e2e2" stroke-width="3"/>
      <path id="Caminho_2150" data-name="Caminho 2150" d="M292.493,297.7l141-13.533,40.6,76.7L404.4,632.247S259.719,599.983,250.76,497.427,292.493,297.7,292.493,297.7Z" transform="translate(78.515 250.098)" fill="#f8f8f8" stroke="#e2e2e2" stroke-width="3"/>
      <path id="Caminho_2151" data-name="Caminho 2151" d="M730.936,266.587,727.78,93.739,857.7,71.72V406.075L767.51,331.984Z" transform="translate(504.045 61.001)" fill="#79c786" stroke="#61bb70" stroke-width="3"/>
      <path id="Caminho_2152" data-name="Caminho 2152" d="M607.62,2.51l47.724,43.472,165.7,84.09,151.83-27.784V2.51Z" transform="translate(397.093 -0.601)" fill="#f8f8f8" stroke="#e2e2e2" stroke-width="3"/>
      <path id="Caminho_2153" data-name="Caminho 2153" d="M573.355,137.92,588.1,212.54,489.19,259.4Z" transform="translate(291.681 119.924)" fill="#79c786" stroke="#e2e2e2" stroke-width="3"/>
      <path id="Caminho_2154" data-name="Caminho 2154" d="M414.9,429.061,629.2,327.545,542.372,78.3,378.823,95.311,290.84,186.658Z" transform="translate(115.134 66.858)" fill="#f8f8f8" stroke="#e2e2e2" stroke-width="3"/>
      <path id="Caminho_2155" data-name="Caminho 2155" d="M516.53,346.12,441.91,137.909,449.64,3.43h77.21l63.356,44.247-3.478,90.232,12.229,82.426Z" transform="translate(249.598 0.218)" fill="#f8f8f8" stroke="#e2e2e2" stroke-width="3"/>
      <path id="Caminho_2156" data-name="Caminho 2156" d="M300.53,3.43l229.909,94.5,8.676-94.5Z" transform="translate(123.759 0.218)" fill="#f8f8f8" stroke="#e2e2e2" stroke-width="3"/>
      <path id="Caminho_2157" data-name="Caminho 2157" d="M628.73,106.257l-261-137.146L77.8-43.189c-.466,27.79,4.367,102.325,17.356,126.9,21.7,41.2,69.4,90.232,69.4,90.232l65.945,61.6Z" transform="translate(-76.048 0.627)" fill="#f8f8f8" stroke="#e2e2e2" stroke-width="3"/>
      <path id="Caminho_2158" data-name="Caminho 2158" d="M263.81,118.931,295.185,162.4,370.6,87.65Z" transform="translate(91.075 75.18)" fill="#f8f8f8" stroke="#e2e2e2" stroke-width="3"/>
      <path id="Caminho_2159" data-name="Caminho 2159" d="M172.35,165.015,321.855,111.62l83.428,141.491-90.1,58.725s-54.661-72.749-67.4-81.424S172.35,165.015,172.35,165.015Z" transform="translate(9.669 96.515)" fill="#f8f8f8" stroke="#e2e2e2" stroke-width="3"/>
      <path id="Caminho_2160" data-name="Caminho 2160" d="M253.57,251.088l87.416-55.4,82.086,136.672L286.987,352.4S282.98,311,275.646,297.584,253.57,251.088,253.57,251.088Z" transform="translate(81.961 171.344)" fill="#f8f8f8" stroke="#e2e2e2" stroke-width="3"/>
      <path id="Caminho_2161" data-name="Caminho 2161" d="M771.8,92.286,745,47.869l21.358-20.3h32.717l7.957,59.254Z" transform="translate(519.372 21.704)" fill="none" stroke="#e2e2e2" stroke-width="1"/>
      <path id="Caminho_2162" data-name="Caminho 2162" d="M754.66,4.13l3.157,39.692h33.171l4.366-39.6Z" transform="translate(527.97 0.841)" fill="#e2e2e2" stroke="#e2e2e2" stroke-width="1"/>
      <path id="Caminho_2163" data-name="Caminho 2163" d="M782.127,106.251,776.06,46.714,779.727,3.79l39.692,1.229V98.88Z" transform="translate(547.018 0.538)" fill="none" stroke="#e2e2e2" stroke-width="1"/>
      <path id="Caminho_2164" data-name="Caminho 2164" d="M781.821,4.13l4.48,41.336-19.978,20.6L717.71,44.2V4.13Z" transform="translate(495.081 0.841)" fill="none" stroke="#e2e2e2" stroke-width="1"/>
      <path id="Caminho_2165" data-name="Caminho 2165" d="M736.367,27.58,695.05,80.5l48.31,24.231L811.4,91.673,786.19,49.751Z" transform="translate(474.912 21.713)" fill="none" stroke="#e2e2e2" stroke-width="1"/>
      <path id="Caminho_2166" data-name="Caminho 2166" d="M633.76,39.6l28.559-29.3,123.1,31.167-41.582,51.24Z" transform="translate(420.359 6.333)" fill="none" stroke="#e2e2e2" stroke-width="1"/>
      <path id="Caminho_2167" data-name="Caminho 2167" d="M658.81,3.979l-8.43,8.675L771.628,41.781,770.873,3.79Z" transform="translate(435.152 0.538)" fill="none" stroke="#e2e2e2" stroke-width="1"/>
      <path id="Caminho_2168" data-name="Caminho 2168" d="M610,3.79l42.337,37.537L688.552,3.79Z" transform="translate(399.211 0.538)" fill="none" stroke="#e2e2e2" stroke-width="1"/>
      <path id="Caminho_2169" data-name="Caminho 2169" d="M587.687,27.57l-141.17,5.5-4.687,84.713,145.857-6.672Z" transform="translate(249.527 21.704)" fill="none" stroke="#e2e2e2" stroke-width="1"/>
      <path id="Caminho_2170" data-name="Caminho 2170" d="M561.616,44.18l-85.224,4.083L468.17,3.6h33.889Z" transform="translate(272.972 0.369)" fill="none" stroke="#e2e2e2" stroke-width="1"/>
      <path id="Caminho_2171" data-name="Caminho 2171" d="M483.062,4.13l8.222,43.226H445.09V4.13Z" transform="translate(252.428 0.841)" fill="#e2e2e2" stroke="#e2e2e2" stroke-width="1"/>
      <path id="Caminho_2172" data-name="Caminho 2172" d="M480.4,78.914l21.207,84.9,31.186,37.518L563.2,156.71,550.182,74.17Z" transform="translate(283.857 63.182)" fill="none" stroke="#e2e2e2" stroke-width="1"/>
      <path id="Caminho_2173" data-name="Caminho 2173" d="M445.09,79.19l59.915-1.89,19.732,82.918,32.774,46.609-43.037,71.5L472.61,166.946Z" transform="translate(252.428 65.968)" fill="none" stroke="#e2e2e2" stroke-width="1"/>
      <path id="Caminho_2174" data-name="Caminho 2174" d="M388.216,3.808,385.06,66.955l69.1,27.973L462.856,3.77Z" transform="translate(198.997 0.52)" fill="none" stroke="#e2e2e2" stroke-width="1"/>
      <path id="Caminho_2175" data-name="Caminho 2175" d="M434.149,3.79l-2.8,61.371L324.43,21.424l1.512-17.616Z" transform="translate(145.032 0.538)" fill="none" stroke="#e2e2e2" stroke-width="1"/>
      <path id="Caminho_2176" data-name="Caminho 2176" d="M306.11,5.739l27.954,13.382L335.954,4Z" transform="translate(128.726 0.725)" fill="#e2e2e2" stroke="#e2e2e2" stroke-width="1"/>
      <path id="Caminho_2177" data-name="Caminho 2177" d="M538.19,26.974,646.851,9.68l1.89,2.1L538.19,30.943Z" transform="translate(335.295 5.781)" fill="none" stroke="#e2e2e2" stroke-width="1"/>
      <path id="Caminho_2178" data-name="Caminho 2178" d="M671.012,37.71,580.78,73.243l2.438,4.555,58.592-22.492,37.367-15.5Z" transform="translate(373.203 30.73)" fill="none" stroke="#e2e2e2" stroke-width="1"/>
      <path id="Caminho_2179" data-name="Caminho 2179" d="M603.482,98.522,558.12,16.077l4.253-.737,45.91,80.839Z" transform="translate(353.034 10.819)" fill="none" stroke="#e2e2e2" stroke-width="1"/>
      <path id="Caminho_2180" data-name="Caminho 2180" d="M477.323,80.728,476,74.15l7.466-.68.964,6.351Z" transform="translate(279.941 62.559)" fill="none" stroke="#e2e2e2" stroke-width="1"/>
      <path id="Caminho_2181" data-name="Caminho 2181" d="M469.83,27.23l.813,4.29,5.368-.227-.945-4.064Z" transform="translate(274.449 21.402)" fill="none" stroke="#e2e2e2" stroke-width="1"/>
      <path id="Caminho_2182" data-name="Caminho 2182" d="M745.009,36.9l-3.119,3.138,2.608,1.474.737.284,2.533-2.363Z" transform="translate(516.603 30.009)" fill="none" stroke="#e2e2e2" stroke-width="1"/>
      <path id="Caminho_2183" data-name="Caminho 2183" d="M774.231,25.23l-.491,4.442,4.744.34V25.23Z" transform="translate(544.952 19.622)" fill="none" stroke="#e2e2e2" stroke-width="1"/>
      <path id="Caminho_2184" data-name="Caminho 2184" d="M714,29.386h0l1.153-5.406,5.8,2.533-1.645,4.347Z" transform="translate(491.779 18.509)" fill="none" stroke="#e2e2e2" stroke-width="1"/>
      <path id="Caminho_2185" data-name="Caminho 2185" d="M757.83,29.678l-3.78-1.89.189-1.077,4.4-1.7Z" transform="translate(527.427 19.426)" fill="none" stroke="#e2e2e2" stroke-width="1"/>
      <path id="Caminho_2186" data-name="Caminho 2186" d="M649.023,7.62l4.744,1.625-2.873,3.27-4.4-2.041Z" transform="translate(431.69 3.947)" fill="none" stroke="#e2e2e2" stroke-width="1"/>
      <path id="Caminho_2187" data-name="Caminho 2187" d="M538.19,85.221,618.821,56.87l2.382,4.612L538.19,90.116Z" transform="translate(335.295 47.784)" fill="none" stroke="#e2e2e2" stroke-width="1"/>
      <path id="Caminho_2188" data-name="Caminho 2188" d="M587.122,58.25,671.306,152.6l164.8-47.743v4.612L668.226,159.842,582,59.516Z" transform="translate(374.289 49.012)" fill="none" stroke="#e2e2e2" stroke-width="1"/>
      <path id="Caminho_2189" data-name="Caminho 2189" d="M651.67,102.427,745.04,246.98l30.978-5.1-.718-7.05-26.8,4.309L657.416,100.82Z" transform="translate(436.301 86.902)" fill="none" stroke="#e2e2e2" stroke-width="1"/>
      <path id="Caminho_2190" data-name="Caminho 2190" d="M577.638,360.186l98.775-242.932,2.873-7.39-5.255-4.574-3.176,7.333L573.31,347.107Z" transform="translate(366.554 90.881)" fill="none" stroke="#e2e2e2" stroke-width="1"/>
      <path id="Caminho_2191" data-name="Caminho 2191" d="M635.22,274.6,760.513,172.08l3.232,4.48-4.5,7.56L640.172,284.048Z" transform="translate(421.659 150.329)" fill="none" stroke="#e2e2e2" stroke-width="1"/>
      <path id="Caminho_2192" data-name="Caminho 2192" d="M813.505,217.72l-87.662,30L661.07,304.588l3.156,3.95L728.6,251.666l88.834-30.014Z" transform="translate(444.667 190.953)" fill="none" stroke="#e2e2e2" stroke-width="1"/>
      <path id="Caminho_2193" data-name="Caminho 2193" d="M697.356,233.56l57,64.055-2.8,3.024L693.33,237.076Z" transform="translate(473.381 205.051)" fill="none" stroke="#e2e2e2" stroke-width="1"/>
      <path id="Caminho_2194" data-name="Caminho 2194" d="M726.43,268.99l130.17-3.27,1.172,3.27L724.71,272.373Z" transform="translate(501.312 233.676)" fill="none" stroke="#e2e2e2" stroke-width="1"/>
      <path id="Caminho_2195" data-name="Caminho 2195" d="M742.9,267.48,715.232,397.347l-4.442-5.368,26.178-122.458,2.1-2.041Z" transform="translate(488.922 235.243)" fill="none" stroke="#e2e2e2" stroke-width="1"/>
      <path id="Caminho_2196" data-name="Caminho 2196" d="M715.62,378.936,875.8,354.8v4.612L715.62,386.119Z" transform="translate(493.221 312.964)" fill="none" stroke="#e1e1e1" stroke-width="1"/>
      <path id="Caminho_2197" data-name="Caminho 2197" d="M728.32,488.448,865.01,426.51v6.162L732.044,492.738Z" transform="translate(504.525 376.792)" fill="none" stroke="#e2e2e2" stroke-width="1"/>
      <path id="Caminho_2198" data-name="Caminho 2198" d="M777.049,521.52,748.83,363.037l5.519-.907L782.7,519.007Z" transform="translate(522.781 319.489)" fill="none" stroke="#e2e2e2" stroke-width="1"/>
      <path id="Caminho_2200" data-name="Caminho 2200" d="M601.35,324.69l177.667,35.118v8.184L601.35,332.307Z" transform="translate(391.512 286.164)" fill="none" stroke="#e2e2e2" stroke-width="1"/>
      <path id="Caminho_2201" data-name="Caminho 2201" d="M573.31,408H820.324v9.942H573.31Z" transform="translate(366.554 360.316)" fill="none" stroke="#e2e2e2" stroke-width="1"/>
      <path id="Caminho_2202" data-name="Caminho 2202" d="M631.22,563.61,661.045,408h7.012L645.245,563.629Z" transform="translate(418.099 360.316)" fill="none" stroke="#e2e2e2" stroke-width="1"/>
      <path id="Caminho_2203" data-name="Caminho 2203" d="M631.537,410.261l-154.325-7.2-2.7,9.9,157.027,6.748Z" transform="translate(278.615 355.919)" fill="none" stroke="#e2e2e2" stroke-width="1"/>
      <path id="Caminho_2204" data-name="Caminho 2204" d="M521.358,404.72,489,559.14h9l31.98-154.419Z" transform="translate(291.512 357.397)" fill="none" stroke="#e2e2e2" stroke-width="1"/>
      <path id="Caminho_2205" data-name="Caminho 2205" d="M603.624,257.417l-84.165,86.944-4.5-12.474,86.585-82.426Z" transform="translate(314.618 219.204)" fill="none" stroke="#e2e2e2" stroke-width="1"/>
      <path id="Caminho_2206" data-name="Caminho 2206" d="M532.74,279.957l104.918,65.094,8.657-7.56L539.658,272Z" transform="translate(330.444 239.266)" fill="none" stroke="#e2e2e2" stroke-width="1"/>
      <path id="Caminho_2207" data-name="Caminho 2207" d="M387.36,344.619l203.051-31.073V302.3L383.75,335.169Z" transform="translate(197.831 266.235)" fill="none" stroke="#e2e2e2" stroke-width="1"/>
      <path id="Caminho_2208" data-name="Caminho 2208" d="M408.538,399.18,406.1,412.316l87.775,12.871,7.031-9.942Z" transform="translate(217.724 352.466)" fill="none" stroke="#e2e2e2" stroke-width="1"/>
      <path id="Caminho_2209" data-name="Caminho 2209" d="M430.868,315.512v10.943L401.251,470.234,398,485.657l15.121,2.93,2.457-13.873,26.934-150.583V313.49Z" transform="translate(210.515 276.195)" fill="none" stroke="#e2e2e2" stroke-width="1"/>
      <path id="Caminho_2210" data-name="Caminho 2210" d="M473.049,329.995,250.87,427.542v-13.8l217.6-95.014Z" transform="translate(79.558 280.859)" fill="none" stroke="#e2e2e2" stroke-width="1"/>
      <path id="Caminho_2211" data-name="Caminho 2211" d="M333.27,97.957,490.014,367.482l6.937-4.158L340.736,86.9Z" transform="translate(152.9 74.513)" fill="none" stroke="#e2e2e2" stroke-width="1"/>
      <path id="Caminho_2212" data-name="Caminho 2212" d="M320.3,249.952l227.811-121.7,3.969,6.918L324.288,258.476Z" transform="translate(141.356 111.317)" fill="none" stroke="#e2e2e2" stroke-width="1"/>
      <path id="Caminho_2213" data-name="Caminho 2213" d="M215.35,202.972,317.773,143.85l3.515,6.445L221.8,210.57Z" transform="translate(47.942 125.202)" fill="none" stroke="#e2e2e2" stroke-width="1"/>
      <path id="Caminho_2214" data-name="Caminho 2214" d="M205,6.27,183,217.789l8.373-3.78L212.6,6.27Z" transform="translate(19.148 2.746)" fill="none" stroke="#e2e2e2" stroke-width="1"/>
      <path id="Caminho_2215" data-name="Caminho 2215" d="M282.33,51.44,94.4,64.217,99.73,70.3l182.6-11.34Z" transform="translate(-59.713 42.95)" fill="none" stroke="#e2e2e2" stroke-width="1"/>
      <path id="Caminho_2216" data-name="Caminho 2216" d="M414.282,786.787l70.16-267.276L443.465,429.96,310.611,183.569l-55-78.419" transform="translate(83.777 90.757)" fill="none" stroke="#707070" stroke-width="1" stroke-dasharray="4 4"/>
      <line id="Linha_1" data-name="Linha 1" y1="58.592" x2="92.614" transform="translate(335.436 352.783)" fill="none" stroke="#707070" stroke-width="1" stroke-dasharray="4 4"/>
      <line id="Linha_2" data-name="Linha 2" y1="18.901" x2="137.976" transform="translate(375.128 517.22)" fill="none" stroke="#707070" stroke-width="1" stroke-dasharray="4 4"/>
      <path id="Caminho_2217" data-name="Caminho 2217" d="M170.76,191.9l155.553-56.513,125.2-41.034L596.481,64.23" transform="translate(8.254 54.335)" fill="none" stroke="#707070" stroke-width="1" stroke-dasharray="4 4"/>
      <path id="Caminho_2218" data-name="Caminho 2218" d="M224.389-34.7,502.358,103.558" transform="translate(105.948 6.199)" fill="none" stroke="#707070" stroke-width="1" stroke-dasharray="4 4"/>
      <line id="Linha_4" data-name="Linha 4" x2="54.812" y2="9.45" transform="translate(607.608 112.743)" fill="none" stroke="#707070" stroke-width="1" stroke-dasharray="4 4"/>
      <path id="Caminho_2219" data-name="Caminho 2219" d="M443.861,3.15,432.52,133.83l93.6,273.91,39.616,165.1L441.706,908.781" transform="translate(241.24 -0.031)" fill="none" stroke="#707070" stroke-width="1" stroke-dasharray="4 4"/>
      <line id="Linha_5" data-name="Linha 5" x2="132.305" y2="49.142" transform="translate(785.275 670.316)" fill="none" stroke="#707070" stroke-width="1" stroke-dasharray="4 4"/>
      <line id="Linha_6" data-name="Linha 6" y1="130.415" x2="92.614" transform="translate(764.484 239.378)" fill="none" stroke="#707070" stroke-width="1" stroke-dasharray="4 4"/>
      <line id="Linha_7" data-name="Linha 7" y1="47.252" x2="107.734" transform="translate(777.714 347.113)" fill="none" stroke="#707070" stroke-width="1" stroke-dasharray="4 4"/>
      <path id="Caminho_2220" data-name="Caminho 2220" d="M504.52,9.15,547.8,34.609V135.388l77.928,322.069L688.1,477.549l59.916-31.167L880.324,628.547l31.47,243.083,78.495,32.982" transform="translate(305.326 5.309)" fill="none" stroke="#707070" stroke-width="1" stroke-dasharray="4 4"/>
      <path id="Caminho_2221" data-name="Caminho 2221" d="M732.9,269.15,633.481,357.7,580.8,491.14,553.72,677.293" transform="translate(349.118 236.729)" fill="none" stroke="#707070" stroke-width="1" stroke-dasharray="4 4"/>
      <line id="Linha_8" data-name="Linha 8" x1="134.196" y2="24.571" transform="translate(1227.553 116.523)" fill="none" stroke="#707070" stroke-width="1" stroke-dasharray="4 4"/>
      <path id="Caminho_2222" data-name="Caminho 2222" d="M603.52,7.15l51.939,45.078,31.526,12.607,140.471,76.983,2.7,185.039,46.818,73.373L970.214,481.5" transform="translate(393.443 3.529)" fill="none" stroke="#707070" stroke-width="1" stroke-dasharray="4 4"/>
      <line id="Linha_9" data-name="Linha 9" y1="107.734" x2="223.029" transform="translate(530.114 403.815)" fill="none" stroke="#707070" stroke-width="1" stroke-dasharray="4 4"/>
      <line id="Linha_10" data-name="Linha 10" y1="103.954" x2="94.504" transform="translate(388.358 152.435)" fill="none" stroke="#707070" stroke-width="1" stroke-dasharray="4 4"/>
      <path id="Caminho_2270" data-name="Caminho 2270" d="M-1.757,110.307l110.7,145.841,172.2,254.782L216.125,590-1.757,684.884Z" fill="#f8f8f8" stroke="#e2e2e2" stroke-width="3"/>
    </g>
  </g>
</svg>
