<svg xmlns="http://www.w3.org/2000/svg" width="41.508" height="40.002" viewBox="0 0 41.508 40.002">
  <g id="Instagram" transform="translate(-735 -2562.29)">
    <path id="Icon_awesome-twitter-square" data-name="Icon awesome-twitter-square" d="M37.061,2.25H4.447A4.37,4.37,0,0,0,0,6.536V37.966a4.37,4.37,0,0,0,4.447,4.286H37.061a4.37,4.37,0,0,0,4.447-4.286V6.536A4.37,4.37,0,0,0,37.061,2.25Z" transform="translate(735 2560.04)" fill="#fff"/>
    <path id="Caminho_2" data-name="Caminho 2" d="M9.643,3H22.93a6.643,6.643,0,0,1,6.643,6.643V22.93a6.643,6.643,0,0,1-6.643,6.643H9.643A6.643,6.643,0,0,1,3,22.93V9.643A6.643,6.643,0,0,1,9.643,3Z" transform="translate(739.086 2566.376)" fill="none" stroke="#f37021" stroke-linecap="round" stroke-linejoin="round" stroke-width="3"/>
    <path id="Caminho_3" data-name="Caminho 3" d="M22.637,16.47a5.315,5.315,0,1,1-4.478-4.478,5.315,5.315,0,0,1,4.478,4.478Z" transform="translate(738.051 2565.356)" fill="none" stroke="#f37021" stroke-linecap="round" stroke-linejoin="round" stroke-width="3"/>
    <path id="Caminho_4" data-name="Caminho 4" d="M26.25,9.75h0" transform="translate(736.431 2565.605)" fill="none" stroke="#f37021" stroke-linecap="round" stroke-linejoin="round" stroke-width="3"/>
  </g>
</svg>
