<svg id="Grupo_1376" data-name="Grupo 1376" xmlns="http://www.w3.org/2000/svg" width="163" height="53.06" viewBox="0 0 163 53.06">
  <g id="Grupo_1376-2" data-name="Grupo 1376" transform="translate(0)">
    <path id="Caminho_2134" data-name="Caminho 2134" d="M277.064,1068.271c-11.933,0-22.006,0-22.006,0s25.229,8.305,14.252,25.168c0,0,18.662-13.066,7.753-25.172" transform="translate(-252.088 -1068.271)" fill="#009fc2"/>
    <path id="Caminho_2135" data-name="Caminho 2135" d="M269.78,1084.959c-12.432,5.138-23.017,18.581.565,37.6h20.048s-40.412-23.873-20.613-37.6" transform="translate(-252.189 -1069.632)" fill="#f37021"/>
    <path id="Caminho_2136" data-name="Caminho 2136" d="M253.006,1104.425A24.785,24.785,0,0,0,255,1124.151h13.787c-6.88-3.1-16.063-11.758-15.779-19.726" transform="translate(-251.824 -1071.22)" fill="#f37021"/>
    <path id="Caminho_2137" data-name="Caminho 2137" d="M297.391,1092.519c-5.437,0-8.513,4.2-8.513,9.827,0,6.563,3.187,9.562,9,9.562a17.066,17.066,0,0,0,6.451-1.2l-.375-3.187a12.9,12.9,0,0,1-5.439,1.2c-3.713,0-5.622-1.949-5.513-6.264h11.889a18.589,18.589,0,0,0,.113-1.874c0-4.426-2.287-8.065-7.614-8.065m-4.313,7.13c.337-2.516,1.913-4.165,4.163-4.165,2.364,0,3.823,1.612,3.749,4.165Z" transform="translate(-254.846 -1070.249)" fill="#009fc2"/>
    <path id="Caminho_2138" data-name="Caminho 2138" d="M320.447,1092.519a6.812,6.812,0,0,0-6.489,4.051l-.037-.039a24.659,24.659,0,0,0,.26-3.637h-3.823v18.645h4.012v-9.007c0-3.713,2.062-6.675,4.877-6.675,2.135,0,2.777,1.353,2.777,3.677v12.005h3.971v-13.053c0-3.3-1.311-5.966-5.547-5.966" transform="translate(-256.598 -1070.249)" fill="#009fc2"/>
    <path id="Caminho_2139" data-name="Caminho 2139" d="M339.616,1092.519c-5.439,0-8.517,4.2-8.517,9.827,0,6.563,3.191,9.562,9.005,9.562a17.064,17.064,0,0,0,6.45-1.2l-.376-3.187a12.91,12.91,0,0,1-5.438,1.2c-3.712,0-5.625-1.949-5.515-6.264h11.89a18.523,18.523,0,0,0,.111-1.874c0-4.426-2.285-8.065-7.611-8.065m-4.315,7.13c.339-2.516,1.914-4.165,4.164-4.165,2.362,0,3.823,1.612,3.75,4.165Z" transform="translate(-258.29 -1070.249)" fill="#009fc2"/>
    <path id="Caminho_2140" data-name="Caminho 2140" d="M356.109,1097.019h-.078a24.971,24.971,0,0,0,.375-4.128H352.58v18.644h4.012v-7.577c0-5.59,1.8-8.179,5.513-7.5l.187-3.939c-3.486-.338-5.363,1.987-6.184,4.5" transform="translate(-260.042 -1070.246)" fill="#009fc2"/>
    <path id="Caminho_2141" data-name="Caminho 2141" d="M377.394,1108.153a10.819,10.819,0,0,1-2.745.359c-3.5,0-5.922-2.2-5.922-6.214,0-4.259,2.817-6.463,6.321-6.463a13.989,13.989,0,0,1,5.164,1.012l.686-3.393a20.479,20.479,0,0,0-5.888-.871c-6.536,0-10.436,4.408-10.436,10.04,0,6.142,4.081,9.32,9.715,9.32a19.133,19.133,0,0,0,7-1.266v-8.847h-3.9Z" transform="translate(-261.02 -1070.254)" fill="#009fc2"/>
    <rect id="Retângulo_1956" data-name="Retângulo 1956" width="4.012" height="18.644" transform="translate(124.092 22.645)" fill="#009fc2"/>
    <path id="Caminho_2142" data-name="Caminho 2142" d="M427.4,1111.569c-.074-1.574-.113-3.487-.113-5.1v-7.634c0-3.825-1.576-6.3-7.276-6.3a18.633,18.633,0,0,0-6.565,1.236l.375,3.415a11.412,11.412,0,0,1,5.554-1.5c2.918,0,3.893,1.57,3.9,3.887-3.873,0-7.663.948-9.631,2.948a5.785,5.785,0,0,0-1.239,1.847,5.457,5.457,0,0,0,.527,5.3,4.69,4.69,0,0,0,4.569,2.281,6.611,6.611,0,0,0,6.187-3.865l.039.039a24.72,24.72,0,0,0-.188,3.448Zm-4.125-8.924c0,2.664-1.836,6.149-4.576,6.149a3.394,3.394,0,0,1-1.6-.318,3.081,3.081,0,0,1-.082-4.813,5.64,5.64,0,0,1,2.1-.936,16.6,16.6,0,0,1,4.161-.459Z" transform="translate(-264.884 -1070.25)" fill="#009fc2"/>
    <path id="Caminho_2143" data-name="Caminho 2143" d="M399.556,1097.677c.006-1.411,1.911-2.048,4.153-2.053a10.126,10.126,0,0,1,3.671.657l.18-3.076a10.587,10.587,0,0,0-3.531-.542c-5.128,0-8.644,2.2-8.655,5.387-.021,6.371,9.113,4.948,9.1,8.647-.005,1.52-1.368,1.778-3.572,1.778a14.835,14.835,0,0,1-5.023-1.147l-.123,3.557a16.119,16.119,0,0,0,4.907.923c5.053,0,8.053-2.041,8.066-5.482.022-6.113-9.187-5.1-9.172-8.65" transform="translate(-263.532 -1070.26)" fill="#009fc2"/>
  </g>
  <text id="LIGADA_NA_SUA_ENERGIA" data-name="LIGADA NA SUA ENERGIA" transform="translate(69 51.06)" fill="#009fc2" font-size="7" font-family="SegoeUI, Segoe UI" letter-spacing="0.1em"><tspan x="0" y="0">LIGADA NA SUA ENERGIA</tspan></text>
</svg>
