<svg xmlns="http://www.w3.org/2000/svg" xmlns:xlink="http://www.w3.org/1999/xlink" width="275.261" height="208.831" viewBox="0 0 275.261 208.831">
  <defs>
    <linearGradient id="linear-gradient" x1="0.063" y1="0.878" x2="0.982" y2="-0.022" gradientUnits="objectBoundingBox">
      <stop offset="0" stop-color="#e02a33"/>
      <stop offset="0.074" stop-color="#e03533"/>
      <stop offset="0.255" stop-color="#e24b33"/>
      <stop offset="0.454" stop-color="#e45a33"/>
      <stop offset="0.681" stop-color="#e46433"/>
      <stop offset="1" stop-color="#e56733"/>
    </linearGradient>
  </defs>
  <g id="Logo-totem" transform="translate(-104.739 -64.517)">
    <g id="Grupo_1521" data-name="Grupo 1521" transform="translate(83.249 65.357)">
      <ellipse id="Elipse_3" data-name="Elipse 3" cx="6.291" cy="6.573" rx="6.291" ry="6.573" transform="translate(284.168 113.289)" fill="#e45e33"/>
      <ellipse id="Elipse_3-2" data-name="Elipse 3" cx="3.94" cy="4.222" rx="3.94" ry="4.222" transform="translate(43.414 96.422)" fill="#e56633"/>
      <ellipse id="Elipse_3-3" data-name="Elipse 3" cx="3.94" cy="4.222" rx="3.94" ry="4.222" transform="translate(268.541 10.104)" fill="#e45d33"/>
      <g id="Grupo_1531" data-name="Grupo 1531" transform="translate(-33.338 55.062) rotate(-11)">
        <rect id="Retângulo_1967" data-name="Retângulo 1967" width="13" height="5" rx="2.5" transform="translate(262.751 198.643)" fill="#e56733"/>
        <rect id="Retângulo_1968" data-name="Retângulo 1968" width="14" height="5" rx="2.5" transform="translate(271.751 193.643) rotate(90)" fill="#e56733"/>
      </g>
      <g id="Grupo_1529" data-name="Grupo 1529" transform="translate(22 -4)">
        <rect id="Retângulo_1967-2" data-name="Retângulo 1967" width="15" height="5" rx="2.5" transform="translate(-0.51 72.787) rotate(-16)" fill="#e45f33"/>
        <rect id="Retângulo_1968-2" data-name="Retângulo 1968" width="16" height="5" rx="2.5" transform="translate(7.449 64.263) rotate(74)" fill="#e45f33"/>
      </g>
      <g id="Grupo_1534" data-name="Grupo 1534" transform="translate(-27.535 38.327) rotate(-11)">
        <rect id="Retângulo_1967-3" data-name="Retângulo 1967" width="9" height="3" rx="1.5" transform="translate(180.751 160.643)" fill="#e56733"/>
        <rect id="Retângulo_1968-3" data-name="Retângulo 1968" width="9" height="3" rx="1.5" transform="translate(186.751 157.643) rotate(90)" fill="#e56733"/>
      </g>
      <g id="Grupo_1535" data-name="Grupo 1535" transform="matrix(0.966, 0.259, -0.259, 0.966, 27.308, -69.143)">
        <rect id="Retângulo_1967-4" data-name="Retângulo 1967" width="9" height="3" rx="1.5" transform="translate(271.751 67.643)" fill="#e56733"/>
        <rect id="Retângulo_1968-4" data-name="Retângulo 1968" width="9" height="3" rx="1.5" transform="translate(277.751 64.643) rotate(90)" fill="#e56733"/>
      </g>
      <g id="Grupo_1532" data-name="Grupo 1532" transform="matrix(0.966, -0.259, 0.259, 0.966, 3.823, 49.327)">
        <rect id="Retângulo_1967-5" data-name="Retângulo 1967" width="9" height="3" rx="1.5" transform="translate(184.751 8.643)" fill="#e46033"/>
        <rect id="Retângulo_1968-5" data-name="Retângulo 1968" width="9" height="3" rx="1.5" transform="translate(190.751 5.643) rotate(90)" fill="#e46033"/>
      </g>
      <g id="Grupo_1533" data-name="Grupo 1533" transform="translate(3.369 -15.282) rotate(13)">
        <rect id="Retângulo_1967-6" data-name="Retângulo 1967" width="16" height="5" rx="2.5" transform="translate(60.751 4.643)" fill="#e45e33"/>
        <rect id="Retângulo_1968-6" data-name="Retângulo 1968" width="15" height="6" rx="3" transform="translate(71.751 -0.357) rotate(90)" fill="#e45e33"/>
      </g>
      <g id="Grupo_1530" data-name="Grupo 1530" transform="translate(114.358 4.236) rotate(34)">
        <rect id="Retângulo_1967-7" data-name="Retângulo 1967" width="9" height="3" rx="1.5" transform="translate(45.751 187.643)" fill="#e46533"/>
        <rect id="Retângulo_1968-7" data-name="Retângulo 1968" width="9" height="3" rx="1.5" transform="translate(51.751 184.643) rotate(90)" fill="#e46533"/>
      </g>
    </g>
    <g id="Grupo_1523" data-name="Grupo 1523" transform="translate(139 97.314)">
      <path id="Caminho_2144" data-name="Caminho 2144" d="M290.976,187.5a15.063,15.063,0,0,1,14.786-15.044A15.292,15.292,0,0,1,321.068,187.8v12.26h16.18a19.136,19.136,0,0,1,9.621,2.583.994.994,0,0,0,1.494-.862l-.045-68.13a3.873,3.873,0,0,0-3.873-3.869H155.39a.451.451,0,0,0-.3.785L168.175,142.4v62.641a5.6,5.6,0,0,0,5.6,5.6h117.2Z" transform="translate(-154.938 -129.779)" fill="url(#linear-gradient)"/>
      <path id="Caminho_2087" data-name="Caminho 2087" d="M446.821,252.192H423.569V232.561a7.974,7.974,0,1,0-15.947,0v43.967l-7.8-10.412a7.974,7.974,0,0,0-12.765,9.56l21.972,29.337.054-.04a12.609,12.609,0,0,0,11.152,6.725h38.788V264.4A12.2,12.2,0,0,0,446.821,252.192Z" transform="translate(-264.513 -174.856)" fill="#009fc2"/>
      <g id="Grupo_1365" data-name="Grupo 1365" transform="translate(7.058 12.884)">
        <g id="Grupo_1364" data-name="Grupo 1364">
          <g id="Grupo_1360" data-name="Grupo 1360" transform="translate(0 74.409)">
            <path id="Caminho_2088" data-name="Caminho 2088" d="M264.6,336.987H181.83a2.838,2.838,0,0,1-2.838-2.838V306.28l-10.48-9.475a.361.361,0,0,1,.242-.629H264.6a2.837,2.837,0,0,1,2.837,2.838v35.135A2.838,2.838,0,0,1,264.6,336.987Z" transform="translate(-168.392 -296.176)" fill="#fff"/>
            <g id="Grupo_1359" data-name="Grupo 1359" transform="translate(21.084 8.073)">
              <path id="Caminho_2089" data-name="Caminho 2089" d="M217.255,324.188v-4.472c0-.953-.225-1.585-1.136-1.585-.995,0-1.949,1.052-1.949,2.748v3.309h-1.248v-4.472c0-.883-.183-1.585-1.136-1.585-1.066,0-1.949,1.15-1.949,2.748v3.309h-1.262V317.22h1.22a10.435,10.435,0,0,1-.1,1.472l.014.014a2.556,2.556,0,0,1,2.425-1.612,1.738,1.738,0,0,1,1.921,1.585,2.59,2.59,0,0,1,2.383-1.585c1.318,0,2.075.7,2.075,2.285v4.809Z" transform="translate(-208.576 -314.192)" fill="#2a3d4a"/>
              <path id="Caminho_2090" data-name="Caminho 2090" d="M235.555,324.175a8.554,8.554,0,0,1,.07-1.388H235.6a2.486,2.486,0,0,1-2.369,1.514,1.811,1.811,0,0,1-1.935-1.879c0-1.5,1.528-2.4,4.192-2.4V319.7c0-1.108-.379-1.64-1.472-1.64a5.512,5.512,0,0,0-2.1.5l-.239-1a6.835,6.835,0,0,1,2.51-.5c1.949,0,2.565.94,2.565,2.439v2.664c0,.659.014,1.4.043,2Zm-.07-3.267c-2.286,0-2.945.631-2.945,1.332a1.023,1.023,0,0,0,1.066,1.066,2.092,2.092,0,0,0,1.879-2.216Z" transform="translate(-219.374 -314.179)" fill="#2a3d4a"/>
              <path id="Caminho_2091" data-name="Caminho 2091" d="M246.967,313.2a.821.821,0,0,1-.842-.813.842.842,0,1,1,.842.813Zm-.631,8.356v-6.968H247.6v6.968Z" transform="translate(-226.424 -311.563)" fill="#2a3d4a"/>
              <path id="Caminho_2092" data-name="Caminho 2092" d="M254.419,324.315a5.9,5.9,0,0,1-1.542-.182l.112-1.122a4.308,4.308,0,0,0,1.543.28c.9,0,1.514-.407,1.514-1.066,0-1.57-3.238-.589-3.238-3.042,0-1.192.925-2.089,2.776-2.089a7.321,7.321,0,0,1,1.346.14l-.1,1.037a4.767,4.767,0,0,0-1.36-.21c-.926,0-1.36.392-1.36,1,0,1.542,3.253.659,3.253,3.029C257.364,323.361,256.242,324.315,254.419,324.315Z" transform="translate(-229.6 -314.192)" fill="#2a3d4a"/>
              <path id="Caminho_2093" data-name="Caminho 2093" d="M273.9,324.273a6.456,6.456,0,0,1-1.177-.084v3.463H271.46V317.22h1.22a8.049,8.049,0,0,1-.112,1.416l.028.014a2.417,2.417,0,0,1,2.342-1.556c1.626,0,2.551,1.15,2.551,3.281C277.489,322.857,276.157,324.273,273.9,324.273Zm.73-6.141c-1.262,0-1.907,1.472-1.907,2.692v2.3a4.1,4.1,0,0,0,1.234.168c1.317,0,2.215-.8,2.215-2.8C276.171,318.987,275.681,318.131,274.629,318.131Z" transform="translate(-238.466 -314.192)" fill="#2a3d4a"/>
              <path id="Caminho_2094" data-name="Caminho 2094" d="M291.325,320.74h-4.557c-.043,1.738.687,2.552,2.2,2.552a5.107,5.107,0,0,0,1.991-.407l.182,1a6.587,6.587,0,0,1-2.411.435c-2.117,0-3.267-1.122-3.267-3.575,0-2.075,1.164-3.646,3.141-3.646a2.585,2.585,0,0,1,2.762,2.861C291.367,320.122,291.353,320.459,291.325,320.74Zm-2.8-2.692c-.911,0-1.57.659-1.725,1.794h3.281C290.1,318.706,289.5,318.047,288.521,318.047Z" transform="translate(-245.122 -314.192)" fill="#2a3d4a"/>
              <path id="Caminho_2095" data-name="Caminho 2095" d="M303.919,318.329c-1.472-.266-2.173.813-2.173,3.042v2.8h-1.262v-6.968h1.22a9.3,9.3,0,0,1-.154,1.655h.028a2.214,2.214,0,0,1,2.4-1.781Z" transform="translate(-252.261 -314.179)" fill="#2a3d4a"/>
              <path id="Caminho_2096" data-name="Caminho 2096" d="M311.342,322.053c-1.43,0-1.865-.59-1.865-2.09v-4.01h-1.43v-.982h1.43v-2.257l1.262-.35v2.608h1.949v.982h-1.949v3.561c0,1.15.225,1.459,1,1.459a3.362,3.362,0,0,0,.883-.113l.126,1.038A6.549,6.549,0,0,1,311.342,322.053Z" transform="translate(-255.856 -311.944)" fill="#2a3d4a"/>
              <path id="Caminho_2097" data-name="Caminho 2097" d="M322.318,324.315c-1.893,0-3.126-1.093-3.126-3.547a3.391,3.391,0,0,1,3.393-3.673c1.78,0,3.141.982,3.141,3.491A3.443,3.443,0,0,1,322.318,324.315Zm.154-6.169c-1,0-1.963.771-1.963,2.5,0,1.683.687,2.608,1.963,2.608,1.038,0,1.935-.813,1.935-2.594C324.407,319.07,323.763,318.145,322.472,318.145Z" transform="translate(-261.153 -314.192)" fill="#2a3d4a"/>
              <path id="Caminho_2098" data-name="Caminho 2098" d="M334.21,331.339l-.533-.476c.9-.968.926-1.612.6-2.019a.766.766,0,0,1,.6-1.248C335.921,327.6,336.383,329.363,334.21,331.339Z" transform="translate(-268.038 -319.184)" fill="#2a3d4a"/>
              <path id="Caminho_2099" data-name="Caminho 2099" d="M217.255,351.459v-4.472c0-.953-.225-1.585-1.136-1.585-.995,0-1.949,1.052-1.949,2.748v3.309h-1.248v-4.472c0-.883-.183-1.585-1.136-1.585-1.066,0-1.949,1.15-1.949,2.748v3.309h-1.262v-6.968h1.22a10.427,10.427,0,0,1-.1,1.472l.014.014a2.556,2.556,0,0,1,2.425-1.612,1.738,1.738,0,0,1,1.921,1.585,2.59,2.59,0,0,1,2.383-1.585c1.318,0,2.075.7,2.075,2.285v4.809Z" transform="translate(-208.576 -327.154)" fill="#2a3d4a"/>
              <path id="Caminho_2100" data-name="Caminho 2100" d="M235.555,351.446a8.557,8.557,0,0,1,.07-1.388H235.6a2.486,2.486,0,0,1-2.369,1.514,1.811,1.811,0,0,1-1.935-1.879c0-1.5,1.528-2.4,4.192-2.4v-.322c0-1.108-.379-1.64-1.472-1.64a5.5,5.5,0,0,0-2.1.5l-.239-1a6.837,6.837,0,0,1,2.51-.5c1.949,0,2.565.94,2.565,2.44v2.664c0,.659.014,1.4.043,2Zm-.07-3.267c-2.286,0-2.945.631-2.945,1.332a1.023,1.023,0,0,0,1.066,1.066,2.092,2.092,0,0,0,1.879-2.216Z" transform="translate(-219.374 -327.141)" fill="#2a3d4a"/>
              <path id="Caminho_2101" data-name="Caminho 2101" d="M246.967,340.474a.82.82,0,0,1-.842-.813.842.842,0,1,1,.842.813Zm-.631,8.356v-6.968H247.6v6.968Z" transform="translate(-226.424 -324.525)" fill="#2a3d4a"/>
              <path id="Caminho_2102" data-name="Caminho 2102" d="M254.419,351.586a5.9,5.9,0,0,1-1.542-.182l.112-1.122a4.31,4.31,0,0,0,1.543.28c.9,0,1.514-.407,1.514-1.066,0-1.57-3.238-.589-3.238-3.042,0-1.192.925-2.089,2.776-2.089a7.324,7.324,0,0,1,1.346.14l-.1,1.038a4.75,4.75,0,0,0-1.36-.21c-.926,0-1.36.392-1.36,1,0,1.543,3.253.659,3.253,3.028C257.364,350.632,256.242,351.586,254.419,351.586Z" transform="translate(-229.6 -327.154)" fill="#2a3d4a"/>
              <path id="Caminho_2103" data-name="Caminho 2103" d="M274.522,339.4a3.2,3.2,0,0,0-1.024-.154c-1,0-1.43.561-1.43,1.795v.533H274v.982h-1.935v5.987h-1.262v-5.987h-1.43v-.982h1.43v-.518c0-1.921.939-2.832,2.678-2.832a5.259,5.259,0,0,1,1.149.126Z" transform="translate(-237.475 -324.233)" fill="#2a3d4a"/>
              <path id="Caminho_2104" data-name="Caminho 2104" d="M284.3,348.436a8.552,8.552,0,0,1,.07-1.388h-.028a2.486,2.486,0,0,1-2.37,1.514,1.811,1.811,0,0,1-1.935-1.879c0-1.5,1.528-2.4,4.192-2.4v-.322c0-1.108-.379-1.64-1.472-1.64a5.5,5.5,0,0,0-2.1.5l-.239-1a6.836,6.836,0,0,1,2.51-.5c1.949,0,2.566.94,2.566,2.44v2.664c0,.659.014,1.4.042,2Zm-.07-3.267c-2.285,0-2.944.631-2.944,1.332a1.023,1.023,0,0,0,1.065,1.066,2.092,2.092,0,0,0,1.879-2.216Zm-1.43-4.725-.533-.673,1.963-1.767.687.841Z" transform="translate(-242.543 -324.131)" fill="#2a3d4a"/>
              <path id="Caminho_2105" data-name="Caminho 2105" d="M297.152,351.585c-1.668,0-3.056-.8-3.056-3.366,0-2.243,1.15-3.827,3.393-3.827a4.9,4.9,0,0,1,1.71.294l-.238,1.079a4.254,4.254,0,0,0-1.585-.322c-1.262,0-1.949,1.079-1.949,2.608,0,1.361.435,2.44,1.977,2.44a3.837,3.837,0,0,0,1.626-.336l.2,1.051A5.815,5.815,0,0,1,297.152,351.585Z" transform="translate(-249.225 -327.167)" fill="#2a3d4a"/>
              <path id="Caminho_2106" data-name="Caminho 2106" d="M307.606,340.474a.82.82,0,0,1-.841-.813.842.842,0,1,1,.841.813Zm-.631,8.356v-6.968h1.262v6.968Z" transform="translate(-255.247 -324.525)" fill="#2a3d4a"/>
              <path id="Caminho_2107" data-name="Caminho 2107" d="M314.381,348.614V338.379h1.262v10.235Z" transform="translate(-258.867 -324.309)" fill="#2a3d4a"/>
              <path id="Caminho_2108" data-name="Caminho 2108" d="M321.584,356.552a.869.869,0,1,1,0-1.738.869.869,0,0,1,0,1.738Z" transform="translate(-261.877 -332.121)" fill="#2a3d4a"/>
            </g>
          </g>
          <g id="Grupo_1363" data-name="Grupo 1363" transform="translate(18.457)">
            <g id="Grupo_1361" data-name="Grupo 1361" transform="translate(1.437)">
              <path id="Caminho_2109" data-name="Caminho 2109" d="M206.307,155.386h15.3v5.747H212.7v3.2h6.969v3.2H212.7v3.843h9.052V177.3H206.307Z" transform="translate(-206.307 -154.847)" fill="#fff"/>
              <path id="Caminho_2110" data-name="Caminho 2110" d="M257.013,171.838V155.386h5.5V177.3h-9.771l-4.311-16.452V177.3h-5.5V155.386H252.7Z" transform="translate(-223.715 -154.847)" fill="#fff"/>
              <path id="Caminho_2111" data-name="Caminho 2111" d="M289.142,155.386h15.3v5.747h-8.909v3.2H302.5v3.2h-6.969v3.843h9.052V177.3H289.142Z" transform="translate(-245.68 -154.847)" fill="#fff"/>
              <path id="Caminho_2112" data-name="Caminho 2112" d="M336.436,177.3l-4.275-9.017V177.3h-6.394V155.386h8.442c3.628,0,5.532.539,6.933,1.832a5.452,5.452,0,0,1,1.76,4.275,5.861,5.861,0,0,1-4.382,5.927l5.639,9.879Zm-4.275-11.352a5.264,5.264,0,0,0,1.509.216c1.508,0,2.586-.646,2.586-2.8,0-1.652-.611-2.73-2.622-2.73h-1.473Z" transform="translate(-263.088 -154.847)" fill="#fff"/>
              <path id="Caminho_2113" data-name="Caminho 2113" d="M373.008,165.854h8.3V176.81h-2.694l-.79-1.76c-.79,1.508-2.694,2.3-5.532,2.3-6.969,0-9.555-4.705-9.555-11.495,0-6.861,2.658-11.495,9.771-11.495,5.711,0,8.405,2.982,9.052,8.549l-5.927,1.15c-.467-2.622-1.078-3.592-3.233-3.592a3.583,3.583,0,0,0-2.371.683c-.646.539-.79,1.257-.79,2.694v4.023c0,1.653.144,2.192.826,2.8a3.229,3.229,0,0,0,2.407.754c1.94,0,3.089-.718,3.089-2.479h-2.551Z" transform="translate(-280.66 -154.359)" fill="#fff"/>
              <path id="Caminho_2114" data-name="Caminho 2114" d="M406.275,155.386h6.394V177.3h-6.394Z" transform="translate(-301.355 -154.847)" fill="#fff"/>
              <path id="Caminho_2115" data-name="Caminho 2115" d="M443.539,161.285a26.737,26.737,0,0,0-7-1.257c-1.688,0-2.3.359-2.3,1.293,0,3.916,10.166,1.365,10.166,8.981,0,5.173-4.634,7.041-9.2,7.041a24.793,24.793,0,0,1-8.729-1.832v-5.676s5.065,1.975,8.082,1.975c1.186,0,1.976-.287,1.976-1.329,0-1.868-2.515-2.551-4.634-3.233-3.018-.97-5.568-1.868-5.568-5.891,0-4.49,3.161-6.861,9.088-6.861a30.559,30.559,0,0,1,8.118,1.221Z" transform="translate(-310.888 -154.424)" fill="#fff"/>
              <path id="Caminho_2116" data-name="Caminho 2116" d="M482.764,177.3h-6.681l-.755-3.521h-5.352l-.754,3.521H463.4l5.352-21.912h9.052Zm-8.118-6.718-1.975-9.339-1.976,9.339Z" transform="translate(-328.508 -154.847)" fill="#fff"/>
            </g>
            <g id="Grupo_1362" data-name="Grupo 1362" transform="translate(0 32.334)">
              <path id="Caminho_2117" data-name="Caminho 2117" d="M222.93,238.923h-6.681l-.754-3.521h-5.352l-.754,3.521h-5.819l5.352-21.912h9.052Zm-8.118-6.718-1.975-9.339-1.976,9.339Z" transform="translate(-203.569 -216.472)" fill="#fff"/>
              <path id="Caminho_2118" data-name="Caminho 2118" d="M253.313,238.974c-7.22,0-9.914-4.6-9.914-11.495s2.694-11.495,9.914-11.495,9.915,4.6,9.915,11.495S260.533,238.974,253.313,238.974Zm-.934,1.042c9.412,0,13.148,2.479,13.148,2.479l-2.155,4.6a34.326,34.326,0,0,0-12.5-2.227c-2.084,0-3.844.18-3.844.18l-.251-4.742A51.6,51.6,0,0,1,252.379,240.016Zm-2.084-9.878a2.591,2.591,0,0,0,.719,2.191,4.038,4.038,0,0,0,4.6,0,2.593,2.593,0,0,0,.718-2.191v-5.317a2.591,2.591,0,0,0-.718-2.191,4.038,4.038,0,0,0-4.6,0,2.59,2.59,0,0,0-.719,2.191Z" transform="translate(-222.501 -215.984)" fill="#fff"/>
              <path id="Caminho_2119" data-name="Caminho 2119" d="M306.511,217.011V229.4c0,3.413-.718,5.711-2.551,7.507a10.407,10.407,0,0,1-13.65,0c-1.832-1.8-2.551-4.095-2.551-7.507V217.011h6.394v13.83c0,1.725.79,2.515,2.981,2.515s2.982-.79,2.982-2.515v-13.83Z" transform="translate(-243.586 -216.472)" fill="#fff"/>
              <path id="Caminho_2120" data-name="Caminho 2120" d="M332.121,217.011h6.394v21.912h-6.394Z" transform="translate(-264.672 -216.472)" fill="#fff"/>
            </g>
          </g>
        </g>
      </g>
    </g>
  </g>
</svg>
