<svg xmlns="http://www.w3.org/2000/svg" width="41.508" height="40.002" viewBox="0 0 41.508 40.002">
  <g id="Twitter" transform="translate(-542.035 -902.29)">
    <g id="Grupo_11" data-name="Grupo 11" transform="translate(542.035 902.29)">
      <path id="Icon_awesome-twitter-square" data-name="Icon awesome-twitter-square" d="M37.061,2.25H4.447A4.37,4.37,0,0,0,0,6.536V37.966a4.37,4.37,0,0,0,4.447,4.286H37.061a4.37,4.37,0,0,0,4.447-4.286V6.536A4.37,4.37,0,0,0,37.061,2.25ZM32.53,16.429c.019.25.019.509.019.759A16.847,16.847,0,0,1,15.26,33.85a17.684,17.684,0,0,1-9.33-2.625,13.279,13.279,0,0,0,1.464.071,12.478,12.478,0,0,0,7.542-2.5,6.061,6.061,0,0,1-5.68-4.063A6.789,6.789,0,0,0,12,24.626a5.915,5.915,0,0,1-4.864-5.75V18.8a6.246,6.246,0,0,0,2.743.741A5.79,5.79,0,0,1,7.171,14.67,5.624,5.624,0,0,1,8,11.715,17.477,17.477,0,0,0,20.523,17.84a5.924,5.924,0,0,1,5.93-7.2,6.163,6.163,0,0,1,4.438,1.848,12.184,12.184,0,0,0,3.854-1.411A5.886,5.886,0,0,1,32.076,14.3a12.452,12.452,0,0,0,3.5-.911A12.546,12.546,0,0,1,32.53,16.429Z" transform="translate(0 -2.25)" fill="#fff"/>
    </g>
  </g>
</svg>
